<mxfile host="app.diagrams.net" modified="2023-04-07T12:04:43.355Z" agent="Mozilla/5.0 (Macintosh; Intel Mac OS X 10_15_7) AppleWebKit/605.1.15 (KHTML, like Gecko) Version/15.3 Safari/605.1.15" version="21.1.2" etag="5mc9lAnbX-7PpxatI56z" type="github">
  <diagram name="第 1 页" id="_NqwZyx1BSWX3IVVpXD3">
    <mxGraphModel>
      <root>
        <mxCell id="0" />
        <mxCell id="1" parent="0" />
      </root>
    </mxGraphModel>
  </diagram>
</mxfile>
